<?xml version="1.0" standalone="no"?><!DOCTYPE svg PUBLIC "-//W3C//DTD SVG 1.1//EN" "http://www.w3.org/Graphics/SVG/1.1/DTD/svg11.dtd"><svg t="1732853364528" class="icon" viewBox="0 0 1024 1024" version="1.1" xmlns="http://www.w3.org/2000/svg" p-id="5317" xmlns:xlink="http://www.w3.org/1999/xlink" width="200" height="200"><path d="M831.08352 196.97664l-1.73568-2.18112a446.39232 446.39232 0 0 0-317.3888-131.43552 446.4384 446.4384 0 0 0-317.35296 131.43552C113.29536 276.0704 63.36 388.15744 63.36 512s49.93536 235.70432 131.24608 317.20448a448.54784 448.54784 0 0 0 317.35296 131.43552h334.52544a34.79552 34.79552 0 0 0 34.7904-34.26816v-159.58016a463.89248 463.89248 0 0 0 57.29792-115.79904 453.46816 453.46816 0 0 0 22.06208-139.02848 445.99296 445.99296 0 0 0-129.55136-314.98752z m41.89696 432.51712a367.38048 367.38048 0 0 1-54.33344 106.18368 34.42688 34.42688 0 0 0-6.38976 20.33152v135.6032H512a380.0064 380.0064 0 0 1-268.84608-111.37024h0.18944A377.47712 377.47712 0 0 1 131.93216 512c0-104.98048 42.60864-199.7056 111.1808-268.50816h0.22528a379.9552 379.9552 0 0 1 268.6208-111.10912c104.83712 0 199.8592 42.5728 268.39552 111.10912l1.4592 1.95584A375.72096 375.72096 0 0 1 891.54048 512a377.85088 377.85088 0 0 1-18.56 117.49376z" p-id="5318" fill="#d81e06"></path><path d="M524.99968 426.51648c48.4352 54.59456 117.26848 94.23872 206.51008 118.8864-8.52992 12.62592-15.70304 24.08448-21.57056 34.33984a621.7216 621.7216 0 0 1-94.68416-42.7264v26.4192H404.7616V538.112c-29.7984 17.62304-62.52032 33.664-98.18112 48.2048a334.73024 334.73024 0 0 0-19.38944-30.39744c93.63456-34.64704 162.17088-77.77792 205.6448-129.44384h32.16384v0.04096z m-147.968-114.93888h38.32832a522.50624 522.50624 0 0 1-19.79904 44.9024h127.67744v30.39744H379.02336a438.77376 438.77376 0 0 1-63.20128 82.32448 410.24512 410.24512 0 0 0-25.5488-25.09824 369.83808 369.83808 0 0 0 86.7584-132.52608z m-7.92576 289.28512h281.80992v146.61632h-34.34496v-27.3152H403.44576v28.18048H369.1008v-147.4816z m56.81152-140.00128a586.57792 586.57792 0 0 0-35.24096-52.82816l25.09824-15.40608c13.79328 16.72192 26.4192 33.3312 37.87776 49.75104l-27.73504 18.4832z m190.65344 170.84928H403.44576v57.6768h213.12v-57.6768z m-106.56256-173.5168a528.73728 528.73728 0 0 1-99.08736 76.16h199.67488a456.1664 456.1664 0 0 1-100.58752-76.16z m56.36096-146.61632h37.87264a474.63936 474.63936 0 0 1-15.85664 44.9024h137.82016v30.39744h-152.36608a346.7008 346.7008 0 0 1-31.25248 48.88576 391.91552 391.91552 0 0 0-28.63616-22.47168c25.28768-31.71328 42.73152-65.60256 52.41856-101.71392z m67.82464 154.54208a558.37184 558.37184 0 0 0-39.64416-56.81152l26.86976-16.72192c16.1536 18.78528 30.09536 37.2736 41.81504 55.49568l-29.04064 18.03776z" p-id="5319" fill="#d81e06"></path></svg>