<?xml version="1.0" standalone="no"?><!DOCTYPE svg PUBLIC "-//W3C//DTD SVG 1.1//EN" "http://www.w3.org/Graphics/SVG/1.1/DTD/svg11.dtd"><svg t="1732853177584" class="icon" viewBox="0 0 1024 1024" version="1.1" xmlns="http://www.w3.org/2000/svg" p-id="4256" xmlns:xlink="http://www.w3.org/1999/xlink" width="200" height="200"><path d="M275.2 393.6h118.4l28.8 86.4h70.4l-121.6-307.2v-3.2H297.6L176 480h67.2l32-86.4z m16-48l12.8-35.2c12.8-32 22.4-60.8 28.8-89.6l3.2 6.4c9.6 25.6 19.2 54.4 28.8 80l12.8 35.2H291.2zM460.8 598.4V560H217.6v51.2h160l-176 224v35.2h259.2v-48H284.8zM547.2 339.2L630.4 256v592l54.4 22.4 163.2-160-22.4-22.4-22.4-22.4-108.8 105.6V179.2L640 156.8l-137.6 137.6 22.4 22.4z" fill="#d81e06" p-id="4257"></path></svg>